<svg width="32" height="32" viewBox="0 0 32 32" fill="none" xmlns="http://www.w3.org/2000/svg">
<path fillRule="evenodd" clipRule="evenodd" d="M16 8C11.5817 8 8 11.5817 8 16C8 20.4183 11.5817 24 16 24C20.4183 24 24 20.4183 24 16C24 11.5817 20.4183 8 16 8ZM6 16C6 10.4772 10.4772 6 16 6C21.5228 6 26 10.4772 26 16C26 21.5228 21.5228 26 16 26C10.4772 26 6 21.5228 6 16ZM16 11.8C14.8523 11.8 14 12.6523 14 13.8C14 14.3523 13.5523 14.8 13 14.8C12.4477 14.8 12 14.3523 12 13.8C12 11.5477 13.7477 9.8 16 9.8C18.2523 9.8 20 11.5477 20 13.8C20 15.7055 18.7491 17.2498 17 17.6802V17.7C17 18.2523 16.5523 18.7 16 18.7C15.4477 18.7 15 18.2523 15 17.7V16.8C15 16.2477 15.4477 15.8 16 15.8C17.1477 15.8 18 14.9477 18 13.8C18 12.6523 17.1477 11.8 16 11.8ZM16 19.3C16.5523 19.3 17 19.7477 17 20.3V21.2C17 21.7523 16.5523 22.2 16 22.2C15.4477 22.2 15 21.7523 15 21.2V20.3C15 19.7477 15.4477 19.3 16 19.3Z" fill="white"/>
</svg>
