<svg width="24" height="24" viewBox="0 0 24 24" fill="none" xmlns="http://www.w3.org/2000/svg">
<path d="M12.0057 2H17.7098C18.6105 2 19.311 2.50505 19.7112 3.21212C20.1115 4.0202 20.0115 4.92929 19.5111 5.63636L15.3081 11.596C15.208 11.798 15.208 12.101 15.3081 12.303L19.6112 18.3636C20.1115 19.0707 20.1115 19.9798 19.7112 20.7879C19.311 21.4949 18.6105 22 17.7098 22H12.0057C10.9049 22 9.80416 21.4949 9.20373 20.4848L4.60043 13.9192C3.79986 12.7071 3.79986 11.0909 4.60043 9.9798L9.20373 3.41414C9.80416 2.60606 10.9049 2 12.0057 2ZM17.7098 19.9798C17.91 19.9798 17.91 19.8788 18.01 19.7778C18.01 19.6768 18.1101 19.5758 18.01 19.4747L13.807 13.5152C13.2066 12.6061 13.2066 11.3939 13.807 10.4848L18.01 4.52525C18.01 4.42424 18.01 4.32323 18.01 4.22222C18.01 4.12121 17.91 4.0202 17.7098 4.0202H12.0057C11.5054 4.0202 11.1051 4.22222 10.8049 4.62626L6.20158 11.1919C5.90136 11.697 5.90136 12.303 6.20158 12.8081L10.8049 19.3737C11.1051 19.7778 11.5054 19.9798 12.0057 19.9798H17.7098Z" fill="white"/>
</svg>
