<svg width="32" height="32" viewBox="0 0 32 32" fill="none" xmlns="http://www.w3.org/2000/svg">
<path d="M26.8636 12.7342L24.8085 6.59846C24.5149 5.80676 23.8298 5.21298 22.9491 5.01505C22.0683 4.91609 21.2854 5.31194 20.6982 6.00468L20.3068 6.4995C18.9367 5.80676 17.3709 5.4109 15.8051 5.4109C11.3034 5.4109 7.19311 8.47877 6.01875 12.9321C5.92089 13.4269 6.21448 14.0207 6.70379 14.2187C7.19311 14.3176 7.78029 14.0207 7.87815 13.5259C8.85678 9.96323 12.0863 7.48914 15.8051 7.48914C17.273 7.48914 18.7409 7.88499 20.111 8.6767C20.5025 8.97359 21.0897 8.87463 21.3832 8.37981L22.264 7.19225C22.3619 6.99432 22.5576 6.99432 22.6555 6.99432C22.7533 6.99432 22.8512 7.09328 22.9491 7.19225L25.102 13.328C25.1999 13.5259 25.102 13.7238 24.9063 13.8228H24.8085L18.2516 13.9218C18.0559 13.9218 17.958 13.8228 17.958 13.7238C17.958 13.6249 17.8602 13.5259 17.958 13.328L18.9367 11.8435C19.1324 11.6456 19.1324 11.3487 19.1324 11.0518C19.0345 10.7549 18.9367 10.557 18.6431 10.3591C17.7623 9.86426 16.7837 9.66633 15.8051 9.66633C13.6521 9.66633 11.6948 10.8539 10.6183 12.7342C10.4226 13.229 10.5205 13.8228 11.0098 14.1197C11.4991 14.3176 12.0863 14.2187 12.3798 13.7238C13.0649 12.4373 14.435 11.6456 15.9029 11.6456C16.1965 11.6456 16.4901 11.6456 16.7837 11.7446L16.4901 12.2394C16.0008 12.9321 15.9029 13.9218 16.2944 14.7135C16.6858 15.5052 17.4687 16 18.3495 16L24.8085 15.901C25.1999 15.901 25.5914 15.8021 25.8849 15.6041C26.7657 15.0104 27.255 13.8228 26.8636 12.7342Z" fill="white"/>
<path d="M25.3849 17.7156C24.8887 17.5138 24.2931 17.9174 24.1939 18.422C23.2013 21.9541 19.9259 24.4771 16.2535 24.4771C14.7647 24.4771 13.2759 24.0734 11.9856 23.2661C11.5886 22.9633 10.9931 23.0642 10.6953 23.5688L9.80201 24.7798C9.70275 24.8807 9.50424 24.8807 9.40499 24.8807C9.30573 24.8807 9.20648 24.7798 9.10723 24.6789L7.02289 18.5229C6.92363 18.3211 7.02289 18.1193 7.22139 18.0183H7.32065L13.7722 17.9174C13.9707 17.9174 14.0699 18.0183 14.0699 18.1193C14.0699 18.2202 14.1692 18.3211 14.0699 18.5229L13.0774 20.0367C12.8789 20.2385 12.8789 20.5413 12.8789 20.844C12.9781 21.1468 13.0774 21.3486 13.3752 21.5505C14.2684 22.055 15.1617 22.2569 16.2535 22.2569C18.4371 22.2569 20.4222 21.0459 21.4148 19.2294C21.7125 18.7248 21.514 18.1193 21.0177 17.8165C20.5215 17.5138 19.9259 17.7156 19.6282 18.2202C18.9334 19.5321 17.5438 20.2385 16.1543 20.2385C15.8565 20.2385 15.5588 20.2385 15.3602 20.1376L15.658 19.7339C16.1543 19.0275 16.2535 18.0183 15.8565 17.3119C15.4595 16.5046 14.6655 16 13.7722 16L7.32065 16.1009C6.92363 16.1009 6.52661 16.2018 6.22885 16.4037C5.23631 16.9083 4.74004 18.2202 5.13705 19.3303L7.22139 25.4862C7.51916 26.2936 8.21394 26.8991 9.10723 27C9.20648 27 9.30573 27 9.40499 27C10.199 27 10.8938 26.5963 11.2908 25.9908L11.5886 25.4862C12.9781 26.1927 14.467 26.4954 16.055 26.4954C20.6207 26.4954 24.5909 23.367 25.8812 18.9266C26.179 18.422 25.8812 17.8165 25.3849 17.7156Z" fill="white"/>
</svg>
