<svg width="24" height="24" viewBox="0 0 24 24" fill="none" xmlns="http://www.w3.org/2000/svg">
<path d="M11.9943 22H6.29018C5.38954 22 4.68904 21.495 4.28875 20.7879C3.88846 19.9798 3.98854 19.0707 4.48889 18.3636L8.6919 12.404C8.79198 12.202 8.79198 11.899 8.6919 11.697L4.38882 5.63636C3.88846 4.92929 3.88846 4.0202 4.28875 3.21212C4.68904 2.50505 5.38954 2 6.29018 2H11.9943C13.0951 2 14.1958 2.50505 14.7963 3.51515L19.3996 10.0808C20.2001 11.2929 20.2001 12.9091 19.3996 14.0202L14.7963 20.5859C14.1958 21.3939 13.0951 22 11.9943 22ZM6.29018 4.0202C6.09004 4.0202 6.09004 4.12121 5.98997 4.22222C5.98997 4.32323 5.8899 4.42424 5.98997 4.52525L10.193 10.4848C10.7934 11.3939 10.7934 12.6061 10.193 13.5152L5.98997 19.4747C5.98997 19.5758 5.98997 19.6768 5.98997 19.7778C5.98997 19.8788 6.09004 19.9798 6.29018 19.9798H11.9943C12.4946 19.9798 12.8949 19.7778 13.1951 19.3737L17.7984 12.8081C18.0986 12.303 18.0986 11.697 17.7984 11.1919L13.1951 4.62626C12.8949 4.22222 12.4946 4.0202 11.9943 4.0202H6.29018Z" fill="white"/>
</svg>
